<svg width="452" height="379" viewBox="0 0 452 379" fill="none" xmlns="http://www.w3.org/2000/svg">
<g clip-path="url(#clip0_262_206)">
<path d="M5.9 350.8V364.9H0V328.5H12.4C16.6 328.5 19.7 329.5 21.9 331.5C24 333.5 25.1 336.2 25.1 339.7C25.1 343.1 24 345.8 21.9 347.8C19.7 349.8 16.6 350.8 12.5 350.8H5.9ZM19 339.7C19 337.6 18.4 336.1 17.3 335C16.1 333.9 14.3 333.4 11.8 333.4H5.9V346H11.8C16.6 346 19 343.9 19 339.7Z" fill="#F2F2F2"/>
<path d="M40.2 337.7C42 336.6 44 336.1 46.4 336.1V342.5H44.5999C41.9999 342.5 40 343.1 38.4 344.4C36.8 345.7 36.0999 347.7 36.0999 350.6V365H30.2V336.6H36V342.2C37 340.2 38.4 338.8 40.2 337.7Z" fill="#F2F2F2"/>
<path d="M71.0999 337.9C73.2999 339.1 75 340.8 76.3 343C77.5 345.2 78.1999 347.8 78.1999 350.7C78.1999 353.7 77.6 356.3 76.3 358.5C75.1 360.7 73.2999 362.4 71.0999 363.6C68.8999 364.8 66.4 365.4 63.7 365.4C61 365.4 58.4999 364.8 56.2999 363.6C54.0999 362.4 52.3999 360.7 51.0999 358.5C49.7999 356.3 49.2 353.7 49.2 350.7C49.2 347.7 49.7999 345.2 51.0999 343C52.3999 340.8 54.0999 339.1 56.2999 337.9C58.4999 336.7 60.9 336.1 63.7 336.1C66.5 336.1 68.8999 336.8 71.0999 337.9ZM59.5 342.3C58.2 343 57.2 344 56.4 345.5C55.6 346.9 55.2 348.7 55.2 350.7C55.2 352.8 55.6 354.6 56.4 356C57.2 357.4 58.2 358.5 59.5 359.1C60.8 359.8 62.2 360.1 63.7 360.1C65.2 360.1 66.6 359.8 67.9 359.1C69.2 358.4 70.2 357.4 71 356C71.7999 354.6 72.1999 352.8 72.1999 350.7C72.1999 348.6 71.7999 346.9 71 345.5C70.2 344.1 69.2 343 67.9 342.3C66.6 341.6 65.2 341.3 63.7 341.3C62.2 341.3 60.8 341.6 59.5 342.3Z" fill="#F2F2F2"/>
<path d="M106.7 337.9C108.6 339.1 110.2 340.8 111.3 343C112.4 345.2 112.9 347.8 112.9 350.7C112.9 353.7 112.3 356.3 111.3 358.5C110.2 360.7 108.7 362.4 106.7 363.6C104.8 364.8 102.5 365.4 100.1 365.4C97.5 365.4 95.3 364.8 93.5 363.5C91.7 362.2 90.4 360.5 89.7 358.4V378.5H83.8V336.6H89.7V343.2C90.4 341.1 91.7 339.4 93.5 338.1C95.3 336.8 97.5 336.2 100.1 336.2C102.6 336.2 104.8 336.8 106.7 337.9ZM93.9 342.5C92.6 343.3 91.6 344.4 90.8 345.8C90 347.2 89.7 348.9 89.7 350.7C89.7 352.6 90.1 354.2 90.8 355.6C91.6 357 92.6 358.1 93.9 358.9C95.2 359.7 96.7 360.1 98.3 360.1C100.9 360.1 103 359.3 104.6 357.6C106.2 355.9 107 353.6 107 350.7C107 347.8 106.2 345.5 104.6 343.8C103 342.1 100.9 341.3 98.3 341.3C96.7 341.3 95.2 341.7 93.9 342.5Z" fill="#F2F2F2"/>
<path d="M144.8 351.9H123C123.1 354.8 123.9 357 125.4 358.4C126.9 359.8 128.8 360.5 131 360.5C133 360.5 134.6 360 136 359C137.4 358 138.2 356.7 138.5 355H144.8C144.4 357 143.6 358.8 142.4 360.3C141.2 361.8 139.6 363.1 137.7 363.9C135.8 364.8 133.6 365.2 131.3 365.2C128.5 365.2 126.1 364.6 124 363.4C121.9 362.2 120.2 360.5 119 358.3C117.8 356.1 117.2 353.5 117.2 350.5C117.2 347.5 117.8 345 119 342.8C120.2 340.6 121.9 338.9 124 337.7C126.1 336.5 128.5 335.9 131.3 335.9C134.1 335.9 136.5 336.5 138.6 337.6C140.7 338.8 142.3 340.3 143.4 342.3C144.5 344.3 145.1 346.6 145.1 349C145 350.3 145 351.2 144.8 351.9ZM138.1 344.6C137.4 343.3 136.4 342.4 135.2 341.8C134 341.2 132.6 340.9 131.2 340.9C128.9 340.9 127 341.6 125.4 343C123.9 344.4 123 346.5 122.9 349.2H139C139.2 347.4 138.8 345.8 138.1 344.6Z" fill="#F2F2F2"/>
<path d="M160.7 337.7C162.5 336.6 164.5 336.1 166.9 336.1V342.5H165.1C162.5 342.5 160.5 343.1 158.9 344.4C157.3 345.7 156.6 347.7 156.6 350.6V365H150.7V336.6H156.6V342.2C157.5 340.2 158.9 338.8 160.7 337.7Z" fill="#F2F2F2"/>
<path d="M185.5 359.8V364.9H181.9C178.9 364.9 176.6 364.2 175 362.7C173.4 361.2 172.7 358.8 172.7 355.4V341.5H168.6V336.5H172.7V329.4H178.6V336.5H185.5V341.5H178.6V355.5C178.6 357.1 178.9 358.2 179.5 358.9C180.1 359.5 181.2 359.8 182.7 359.8H185.5Z" fill="#F2F2F2"/>
<path d="M194.4 336.5L202.9 357.4L210.8 336.5H217.3L200.1 378.4H193.6L199.7 364.2L187.7 336.5H194.4Z" fill="#F2F2F2"/>
<path d="M231.2 337.7C233 336.6 235 336.1 237.4 336.1V342.5H235.6C233 342.5 231 343.1 229.4 344.4C227.8 345.7 227.1 347.7 227.1 350.6V365H221.2V336.6H227.1V342.2C228.1 340.2 229.4 338.8 231.2 337.7Z" fill="#F2F2F2"/>
<path d="M268 351.9H246.1C246.2 354.8 247 357 248.5 358.4C250 359.8 251.9 360.5 254.1 360.5C256.1 360.5 257.7 360 259.1 359C260.5 358 261.3 356.7 261.6 355H267.9C267.5 357 266.7 358.8 265.5 360.3C264.3 361.8 262.7 363.1 260.8 363.9C258.9 364.8 256.7 365.2 254.4 365.2C251.6 365.2 249.2 364.6 247.1 363.4C245 362.2 243.3 360.5 242.1 358.3C240.9 356.1 240.3 353.5 240.3 350.5C240.3 347.5 240.9 345 242.1 342.8C243.3 340.6 245 338.9 247.1 337.7C249.2 336.5 251.6 335.9 254.4 335.9C257.2 335.9 259.6 336.5 261.7 337.6C263.8 338.8 265.4 340.3 266.5 342.3C267.6 344.3 268.2 346.6 268.2 349C268.2 350.3 268.1 351.2 268 351.9ZM261.3 344.6C260.6 343.3 259.6 342.4 258.4 341.8C257.2 341.2 255.8 340.9 254.4 340.9C252.1 340.9 250.2 341.6 248.6 343C247.1 344.4 246.2 346.5 246.1 349.2H262.2C262.3 347.4 262 345.8 261.3 344.6Z" fill="#F2F2F2"/>
<path d="M285.5 358.9L293.5 336.6H299.8L289 364.9H281.9L271.1 336.5H277.4L285.5 358.9Z" fill="#F2F2F2"/>
<path d="M304.4 325.8C305.1 325.1 306 324.8 307.1 324.8C308.2 324.8 309.2 325.1 309.9 325.8C310.6 326.5 311 327.3 311 328.3C311 329.3 310.6 330.1 309.9 330.7C309.2 331.3 308.3 331.6 307.1 331.6C306 331.6 305.1 331.3 304.4 330.7C303.7 330.1 303.4 329.3 303.4 328.3C303.4 327.3 303.7 326.5 304.4 325.8ZM310.1 336.5V364.9H304.2V336.5H310.1Z" fill="#F2F2F2"/>
<path d="M328.8 358.9L336.8 336.6H343.1L332.3 365H325.2L314.4 336.6H320.7L328.8 358.9Z" fill="#F2F2F2"/>
<path d="M373.7 351.9H351.8C351.9 354.8 352.7 357 354.2 358.4C355.7 359.8 357.6 360.5 359.8 360.5C361.8 360.5 363.4 360 364.8 359C366.2 358 367 356.7 367.3 355H373.6C373.2 357 372.4 358.8 371.2 360.3C370 361.8 368.4 363.1 366.5 363.9C364.6 364.8 362.4 365.2 360.1 365.2C357.3 365.2 354.9 364.6 352.8 363.4C350.7 362.2 349 360.5 347.8 358.3C346.6 356.1 346 353.5 346 350.5C346 347.5 346.6 345 347.8 342.8C349 340.6 350.7 338.9 352.8 337.7C354.9 336.5 357.3 335.9 360.1 335.9C362.9 335.9 365.3 336.5 367.4 337.6C369.5 338.8 371.1 340.3 372.2 342.3C373.3 344.3 373.9 346.6 373.9 349C373.9 350.3 373.8 351.2 373.7 351.9ZM367 344.6C366.3 343.3 365.3 342.4 364.1 341.8C362.9 341.2 361.5 340.9 360.1 340.9C357.8 340.9 355.9 341.6 354.3 343C352.8 344.4 351.9 346.5 351.8 349.2H368C368 347.4 367.7 345.8 367 344.6Z" fill="#F2F2F2"/>
<path d="M385.5 358.4V364.9H378.8V358.4H385.5Z" fill="#1E65B0"/>
<path d="M408.7 338.1C410.5 339.4 411.8 341.1 412.6 343.2V336.6H418.5V365H412.6V358.4C411.8 360.5 410.6 362.2 408.7 363.5C406.9 364.8 404.7 365.4 402.1 365.4C399.6 365.4 397.4 364.8 395.5 363.6C393.6 362.4 392 360.7 390.9 358.5C389.8 356.3 389.3 353.7 389.3 350.7C389.3 347.7 389.8 345.2 390.9 343C392 340.8 393.5 339.1 395.5 337.9C397.4 336.7 399.7 336.1 402.1 336.1C404.7 336.2 406.9 336.8 408.7 338.1ZM397.6 343.8C396 345.5 395.3 347.8 395.3 350.7C395.3 353.6 396.1 355.9 397.6 357.6C399.2 359.3 401.3 360.1 403.9 360.1C405.5 360.1 407 359.7 408.3 358.9C409.6 358.1 410.6 357 411.4 355.6C412.2 354.2 412.5 352.5 412.5 350.7C412.5 348.8 412.1 347.2 411.4 345.8C410.6 344.4 409.6 343.3 408.3 342.5C407 341.7 405.5 341.3 403.9 341.3C401.3 341.3 399.2 342.2 397.6 343.8Z" fill="#1E65B0"/>
<path d="M451.7 351.9H429.8C429.9 354.8 430.7 357 432.2 358.4C433.7 359.8 435.6 360.5 437.8 360.5C439.8 360.5 441.4 360 442.8 359C444.2 358 445 356.7 445.3 355H451.6C451.2 357 450.4 358.8 449.2 360.3C448 361.8 446.4 363.1 444.5 363.9C442.6 364.8 440.4 365.2 438.1 365.2C435.3 365.2 432.9 364.6 430.8 363.4C428.7 362.2 427 360.5 425.8 358.3C424.6 356.1 424 353.5 424 350.5C424 347.5 424.6 345 425.8 342.8C427 340.6 428.7 338.9 430.8 337.7C432.9 336.5 435.3 335.9 438.1 335.9C440.9 335.9 443.3 336.5 445.4 337.6C447.5 338.8 449.1 340.3 450.2 342.3C451.3 344.3 451.9 346.6 451.9 349C451.9 350.3 451.8 351.2 451.7 351.9ZM445 344.6C444.3 343.3 443.3 342.4 442.1 341.8C440.9 341.2 439.5 340.9 438.1 340.9C435.8 340.9 433.9 341.6 432.3 343C430.8 344.4 429.9 346.5 429.8 349.2H446C446 347.4 445.7 345.8 445 344.6Z" fill="#1E65B0"/>
<path d="M280.7 116.3C280.7 117.5 279.7 118.5 278.5 118.5L268.1 118.6C266.9 118.6 265.9 117.6 265.9 116.4V110.3C265.9 109.7 266.2 109.2 266.6 108.8C270.9 105.1 270.8 95.8001 261.2 95.2001H261.1C260.9 95.1001 255.8 93.3001 255.4 93.2001L255.3 83.3001C255.5 83.2001 260.6 81.3001 260.9 81.2001C261.1 81.2001 261.2 81.2001 261.4 81.2001C267.6 80.8001 268.2 79.4001 268.2 79.4001C270.8 72.2001 251.6 56.7001 251.6 56.7001L252.1 55.6001C258.4 58.7001 263.4 62.7001 267.4 66.4001C276.9 75.4001 280.5 84.4001 280.5 94.9001C280.5 95.5001 280.2 96.0001 279.8 96.4001C275.9 100 276.6 106.1 279.9 108.9C280.3 109.2 280.6 109.8 280.6 110.3L280.7 116.3Z" fill="#1E65B0"/>
<path d="M261.4 81.2C261.3 81.2 261.1 81.2 260.9 81.2C260.6 81.3 255.5 83.3 255.3 83.3L255.4 93.2C255.7 93.3 260.9 95.2 261.1 95.2H261.2C262.7 93.2 263.7 90.7 263.7 87.9C263.6 85.5 262.8 83.2 261.4 81.2Z" fill="#1E65B0"/>
<path d="M277.4 199.3L276 210.3L274.9 219C274.8 219.7 274.2 220.1 273.6 220.1C273.2 220.1 272.9 220 272.6 219.6C272.4 219.3 272.3 219 272.3 218.7L273.7 207.5L275.1 196.5L286.2 197.6L297.4 198.7C297.7 198.7 298 198.9 298.3 199.2C299 200.1 298.3 201.3 297.2 201.2L288.5 200.3L277.4 199.3Z" fill="#1E65B0"/>
<path d="M304.1 213.6L296.1 203.2L279.3 201.5L277.2 218.3L285.1 228.2L285.4 228.6L298.3 245.1C302.1 249.9 302.7 256 300 261.5C297.3 267 292.1 270.2 286 270.2H284.8C279.9 270.2 275.3 267.9 272.4 264L244.4 227C237.2 217.4 225.7 211.7 213.6 211.7C192.3 211.7 175.1 229 175.1 250.2V254.5C175.1 263.1 168.1 270 159.6 270C151 270 144.1 263 144.1 254.5V203.2C144.1 188.8 155.8 177.1 170.2 177.1H243.1C292 177.1 331.8 137.3 331.8 88.5C331.7 39.8 292 0 243.1 0H170.2C142.6 0 120.2 22.4 120.2 50C120.2 77.6 142.6 100 170.2 100H251.7C255.6 100 259 98.1 261.2 95.3H261.1C260.9 95.2 255.8 93.4 255.4 93.3L255.3 83.4C255.5 83.3 260.6 81.4 260.9 81.3C261.1 81.3 261.2 81.3 261.4 81.3C259.2 78.2 255.6 76.2 251.6 76.2H170.1C155.7 76.2 144 64.5 144 50.1C144 35.7 155.7 24 170.1 24H243C278.7 24 307.7 53 307.7 88.7C307.7 124.4 278.7 153.4 243 153.4H170.1C142.5 153.4 120.1 175.8 120.1 203.4V254.7C120.1 276.5 137.8 294.2 159.6 294.2C181.4 294.2 199.1 276.5 199.1 254.7V250.4C199.1 242.4 205.6 235.8 213.7 235.8C218.3 235.8 222.6 238 225.3 241.6L253.2 278.6C260.6 288.4 272.4 294.3 284.7 294.3H285.9C301.1 294.3 314.7 285.8 321.4 272.1C328.1 258.4 326.4 242.5 317 230.5L304.1 213.6ZM285.8 218.1L289.4 215.2L292.3 218.8L288.7 221.7L285.8 218.1ZM296.8 215.2L293.2 218.1L290.3 214.5L293.9 211.6L296.8 215.2ZM290.4 207.1L293.2 210.7L289.6 213.6L286.7 210L290.4 207.1ZM285.1 217.2L282.2 213.6L285.8 210.7L288.6 214.3L285.1 217.2Z" fill="#1E65B0"/>
</g>
<defs>
<clipPath id="clip0_262_206">
<rect width="451.9" height="378.4" fill="white"/>
</clipPath>
</defs>
</svg>
